<?xml version="1.0" encoding="UTF-8"?>
<svg width="105px" height="41px" viewBox="0 0 105 41" version="1.1" xmlns="http://www.w3.org/2000/svg" xmlns:xlink="http://www.w3.org/1999/xlink">
    <!-- Generator: Sketch 54.1 (76490) - https://sketchapp.com -->
    <title>Rey-Logo</title>
    <desc>Created with Sketch.</desc>
    <g id="Page-1" stroke="none" stroke-width="1" fill="none" fill-rule="evenodd">
        <g id="rey-logo" fill="#95A6B1" fill-rule="nonzero">
            <path d="M0,0 L105,0 L105,41 L0,41 L0,0 Z M94.788,14.72 L88.452,14.72 L84.996,24.296 L81.54,14.72 L75.204,14.72 L82.152,30.92 L77.6054266,41 L83.9332174,41 L94.788,14.72 Z M47.556,17.924 L47.556,14.72 L41.796,14.72 L41.796,32 L47.556,32 L47.556,25.628 C47.556,22.82 49.068,20.948 50.724,20.48 C51.768,20.192 52.812,20.156 53.892,20.48 L53.892,14.144 C50.652,14.36 48.744,15.44 47.556,17.924 Z M66.06,27.536 C65.376,27.536 64.692,27.428 64.26,27.176 L74.484,21.056 C73.152,15.332 68.76,14.144 66.276,14.144 C60.264,14.144 56.628,18.248 56.628,23.36 C56.628,28.472 60.264,32.576 66.276,32.576 C69.048,32.576 71.424,31.568 73.332,29.732 L70.38,25.88 C69.336,26.852 67.788,27.536 66.06,27.536 Z M66.276,19.184 C67.212,19.184 67.86,19.652 68.148,20.12 L62.172,23.684 C61.812,20.984 63.828,19.184 66.276,19.184 Z" id="Rey-Logo"></path>
        </g>
    </g>
</svg>